<?xml version="1.0" encoding="UTF-8"?>
<!DOCTYPE svg PUBLIC "-//W3C//DTD SVG 1.1//EN" "http://www.w3.org/Graphics/SVG/1.1/DTD/svg11.dtd">
<svg xmlns="http://www.w3.org/2000/svg" version="1.1" width="500px" height="500px" style="shape-rendering:geometricPrecision; text-rendering:geometricPrecision; image-rendering:optimizeQuality; fill-rule:evenodd; clip-rule:evenodd" xmlns:xlink="http://www.w3.org/1999/xlink">
<g><path style="opacity:0.982" fill="#0050f4" d="M 128.5,36.5 C 138.934,35.9083 149.1,37.2416 159,40.5C 168.724,46.5226 178.391,52.5226 188,58.5C 212.752,71.7487 239.086,76.082 267,71.5C 279.781,69.2796 291.781,64.9463 303,58.5C 311.182,51.9355 320.015,46.2688 329.5,41.5C 359.214,30.8861 384.38,37.2194 405,60.5C 411.564,70.9441 414.73,82.4441 414.5,95C 414.93,117.082 406.096,134.249 388,146.5C 362.564,158.974 338.731,156.641 316.5,139.5C 307.519,134.837 298.519,130.17 289.5,125.5C 284.132,123.953 278.799,122.287 273.5,120.5C 236.445,112.651 203.278,120.318 174,143.5C 155.009,154.766 134.843,157.266 113.5,151C 84.9341,136.323 73.4341,112.823 79,80.5C 80.3298,76.5052 81.6631,72.5052 83,68.5C 93.3074,51.0705 108.474,40.4038 128.5,36.5 Z"/></g>
<g><path style="opacity:0.982" fill="#0050f4" d="M -0.5,264.5 C -0.5,254.833 -0.5,245.167 -0.5,235.5C 5.68137,212.824 20.348,198.324 43.5,192C 67.1993,187.928 87.1993,194.428 103.5,211.5C 107.526,216.969 110.693,222.969 113,229.5C 121.987,264.681 110.487,290.181 78.5,306C 48.7529,313.929 24.7529,305.762 6.5,281.5C 3.79537,275.89 1.46204,270.223 -0.5,264.5 Z"/></g>
<g><path style="opacity:0.982" fill="#0050f4" d="M 499.5,235.5 C 499.5,244.833 499.5,254.167 499.5,263.5C 491.617,290.861 473.45,306.194 445,309.5C 422.27,308.156 402.937,299.489 387,283.5C 367.079,271.313 345.579,267.98 322.5,273.5C 315.398,276.35 308.565,279.684 302,283.5C 295.511,288.326 289.344,293.492 283.5,299C 278.946,300.722 274.613,302.889 270.5,305.5C 245.148,313.102 223.148,307.768 204.5,289.5C 202.458,285.145 199.792,281.312 196.5,278C 187.347,255.926 189.014,234.759 201.5,214.5C 218.673,193.288 240.673,186.288 267.5,193.5C 279.388,197.542 289.722,203.876 298.5,212.5C 329.034,234.31 360.034,234.976 391.5,214.5C 401.975,203.466 414.642,195.966 429.5,192C 464.746,188.065 488.079,202.565 499.5,235.5 Z"/></g>
<g><path style="opacity:0.983" fill="#0050f4" d="M 128.5,344.5 C 137.12,344.449 145.62,345.449 154,347.5C 159.399,350.744 165.065,353.41 171,355.5C 192.578,372.585 217.411,381.251 245.5,381.5C 273.408,381.394 298.075,372.727 319.5,355.5C 344.084,340.537 368.417,340.871 392.5,356.5C 398.922,362.42 404.422,369.087 409,376.5C 416.371,395.371 416.204,414.204 408.5,433C 392.811,457.822 370.144,467.322 340.5,461.5C 337.353,459.84 334.02,458.673 330.5,458C 322.725,453.802 315.391,448.969 308.5,443.5C 272.719,423.715 235.719,421.382 197.5,436.5C 191.873,440.37 186.04,443.703 180,446.5C 161.955,461.998 141.122,466.664 117.5,460.5C 92.3111,450.774 78.6444,432.274 76.5,405C 77.5007,398.331 78.5007,391.664 79.5,385C 83.4222,376.624 88.0889,368.791 93.5,361.5C 97.0871,360.522 99.7538,358.356 101.5,355C 106.067,353.31 110.4,351.144 114.5,348.5C 119.518,347.538 124.185,346.204 128.5,344.5 Z"/></g>
</svg>
