<?xml version="1.0" standalone="no"?>
<!DOCTYPE svg PUBLIC "-//W3C//DTD SVG 20010904//EN"
 "http://www.w3.org/TR/2001/REC-SVG-20010904/DTD/svg10.dtd">
<svg version="1.0" xmlns="http://www.w3.org/2000/svg"
 width="180.000000pt" height="186.000000pt" viewBox="0 0 180.000000 186.000000"
 preserveAspectRatio="xMidYMid meet">

<g transform="translate(0.000000,186.000000) scale(0.100000,-0.100000)"
fill="#000000" stroke="none">
<path d="M1190 1849 c-25 -5 -115 -11 -200 -13 -140 -2 -161 -5 -217 -28 l-62
-25 -93 24 c-81 21 -109 24 -213 20 -102 -3 -129 -8 -176 -29 -136 -62 -203
-169 -223 -361 -7 -68 14 -227 50 -372 79 -317 179 -522 278 -569 45 -21 114
-20 151 2 29 18 30 18 63 -4 51 -35 134 -49 212 -36 35 6 65 10 66 9 1 -1 7
-56 13 -122 6 -69 20 -148 32 -184 52 -153 181 -197 359 -120 112 48 174 173
188 378 l7 105 65 3 c202 11 366 149 290 246 -26 33 -64 41 -140 27 -34 -6
-63 -10 -65 -8 -2 2 23 55 54 119 146 296 200 599 127 723 -50 85 -173 170
-291 203 -66 18 -218 24 -275 12z m230 -49 c124 -24 272 -128 306 -216 36 -94
2 -304 -84 -519 -39 -95 -122 -259 -142 -279 -36 -36 22 -51 137 -35 65 10 86
9 98 -1 38 -31 -4 -89 -99 -137 -41 -21 -70 -27 -148 -31 -63 -3 -98 -9 -98
-16 0 -6 -11 -86 -24 -177 -27 -190 -48 -247 -108 -286 -83 -55 -196 -68 -268
-30 -86 45 -120 157 -120 394 l0 92 -45 -26 c-90 -50 -240 -34 -275 30 -14 27
-14 29 12 51 14 13 43 26 65 30 57 10 90 26 106 50 14 20 12 22 -35 37 l-49
16 -82 -94 c-109 -127 -153 -147 -224 -104 -88 54 -188 287 -260 606 -38 169
-38 332 -1 422 13 33 36 74 49 91 59 73 174 122 286 122 54 0 228 -31 274 -48
21 -9 36 -5 80 16 51 25 64 27 204 29 83 1 168 6 190 11 55 13 191 14 255 2z"/>
<path d="M1190 1741 c0 -6 13 -17 29 -26 75 -39 174 -145 232 -250 l33 -60 0
-256 c-1 -217 -3 -261 -17 -289 -24 -48 -21 -50 9 -6 30 44 94 179 129 273 53
140 70 223 70 340 l0 112 -45 46 c-25 26 -77 62 -119 83 -70 35 -79 36 -197
40 -86 3 -124 1 -124 -7z"/>
<path d="M869 1730 c-141 -24 -239 -139 -273 -321 -8 -40 -13 -75 -11 -77 2
-2 18 5 37 14 23 13 56 18 111 19 77 0 79 -1 111 -36 25 -27 36 -52 47 -105
28 -141 15 -245 -48 -379 -12 -27 -23 -54 -23 -60 0 -5 18 -18 40 -27 62 -26
70 -55 70 -260 0 -314 29 -388 153 -388 93 0 175 47 196 113 12 38 46 277 56
392 7 74 26 135 43 135 4 0 13 4 20 9 10 6 7 18 -16 52 -41 61 -136 253 -157
318 -50 153 9 251 151 251 42 0 45 1 38 23 -22 73 -130 203 -212 255 -91 59
-233 89 -333 72z"/>
<path d="M295 1713 c-101 -37 -154 -101 -175 -213 -20 -104 -11 -207 36 -400
80 -331 184 -534 265 -513 11 3 56 48 100 99 l80 94 -30 37 c-38 48 -65 142
-56 191 4 21 7 99 6 175 -1 218 29 346 109 461 l30 45 -52 16 c-83 26 -252 30
-313 8z"/>
<path d="M1294 1297 c-52 -45 -34 -133 67 -326 65 -125 69 -114 60 144 -2 50
0 116 4 148 l7 57 -55 0 c-44 0 -62 -5 -83 -23z m87 3 c18 0 8 -30 -15 -45
-19 -13 -29 -14 -45 -5 -12 6 -21 17 -21 26 0 16 38 35 58 28 8 -2 18 -4 23
-4z"/>
<path d="M670 1301 c-14 -5 -39 -15 -56 -24 l-31 -16 -6 -158 c-6 -151 -5
-160 17 -209 27 -58 78 -102 128 -110 l34 -6 44 112 c40 103 43 119 43 200 -1
109 -18 185 -46 205 -23 16 -85 18 -127 6z m121 -21 c24 -13 24 -29 2 -46 -25
-19 -47 -17 -68 6 -35 38 13 68 66 40z"/>
<path d="M1421 704 c-32 -23 -28 -60 8 -67 50 -10 163 12 211 42 26 15 24 16
-55 13 -60 -3 -90 0 -112 12 -27 13 -32 13 -52 0z"/>
<path d="M778 661 c-44 -47 -92 -71 -140 -71 -10 0 -18 -4 -18 -9 0 -14 82
-24 128 -16 46 7 122 67 122 95 0 18 -25 50 -39 50 -4 0 -28 -22 -53 -49z"/>
</g>
</svg>
